<svg xmlns="http://www.w3.org/2000/svg" width="113" height="45.06" viewBox="0 0 113 45.06">
  <metadata><?xpacket begin="﻿" id="W5M0MpCehiHzreSzNTczkc9d"?>
<x:xmpmeta xmlns:x="adobe:ns:meta/" x:xmptk="Adobe XMP Core 5.6-c142 79.160924, 2017/07/13-01:06:39        ">
   <rdf:RDF xmlns:rdf="http://www.w3.org/1999/02/22-rdf-syntax-ns#">
      <rdf:Description rdf:about=""/>
   </rdf:RDF>
</x:xmpmeta>
                                                                                                    
                                                                                                    
                                                                                                    
                                                                                                    
                                                                                                    
                                                                                                    
                                                                                                    
                                                                                                    
                                                                                                    
                                                                                                    
                                                                                                    
                                                                                                    
                                                                                                    
                                                                                                    
                                                                                                    
                                                                                                    
                                                                                                    
                                                                                                    
                                                                                                    
                                                                                                    
                           
<?xpacket end="w"?></metadata>
<defs>
    <style>
      .cls-1 {
        fill: #cab128;
        fill-rule: evenodd;
      }
    </style>
  </defs>
  <path id="Shape_4624_1" data-name="Shape 4624 1" class="cls-1" d="M204.023,1966.96l-1.392,1.37c0.3,0.3.6,0.6,0.892,0.89l-0.1-.05a96.95,96.95,0,0,0-4.861,13.62c-3.109.23-5.905,0.46-7.543,0.49-22.658.4-45.332-.12-68.079,0.76l0.073,1.94h0c22.669-.88,45.327-0.35,68.043-0.75,1.617-.03,4.137-0.25,6.942-0.45-0.5,1.83-.985,3.7-1.424,5.57-0.1.44-.2,0.88-0.286,1.31-21.783-.16-43.685.98-65.284-0.39l-0.126,1.94c21.627,1.37,43.429.25,64.992,0.39-1.491,7.34-2.206,14.11-.584,17.76l0.313,0.68,0.725-.12c10.87-1.78,30.556-12.18,38.693-18.63l0.923-.73-0.892-.77c-2.311-1.96-4.705-3.83-7.115-5.66-3.75-2.83-7.563-5.54-11.271-8.36A110.735,110.735,0,0,1,204.023,1966.96Zm22.726,20.72c2.076,1.57,4.121,3.17,6.108,4.82-8.079,6.09-26.116,15.47-36.073,17.36-0.96-3.04-.361-9.45,1.048-16.23,6.087,0.06,12.148.21,18.183,0.58l0.443,1.05a10.618,10.618,0,0,1,3.37-.8v-1.94c-7.162-.54-14.35-0.76-21.558-0.85,0.062-.29.125-0.58,0.2-0.88,0.475-2.06,1.007-4.14,1.581-6.16,1.132-.07,2.3-0.14,3.448-0.19,4.736-.27,9.415.02,10.374,0.89a0.869,0.869,0,0,1,.162.15l1.434-1.32a2.816,2.816,0,0,0-.427-0.38c-2.228-1.55-6.719-1.45-11.627-1.29-0.928.04-1.867,0.1-2.8,0.16a99.368,99.368,0,0,1,4.3-12.09,125.269,125.269,0,0,0,10.552,8.77C219.233,1982.16,223.046,1984.87,226.749,1987.68Z" transform="translate(-122.938 -1966.97)"/>
</svg>
